<svg id="svg" version="1.1"
    xmlns="http://www.w3.org/2000/svg"
    xmlns:xlink="http://www.w3.org/1999/xlink" width="400" height="400" viewBox="0, 0, 400,400">
    <g id="svgg">
        <path id="path0" d="M118.200 121.421 C 116.085 122.737,112.384 123.805,107.000 124.652 L 102.600 125.344 100.800 127.259 C 99.588 128.548,98.085 129.578,96.200 130.412 C 94.044 131.366,92.756 132.313,90.600 134.533 C 89.060 136.118,87.260 137.866,86.600 138.417 C 85.940 138.969,84.341 140.817,83.046 142.525 C 81.751 144.233,80.374 145.853,79.986 146.125 C 78.958 146.845,77.686 149.162,76.959 151.639 C 76.610 152.827,75.652 154.700,74.831 155.800 C 70.018 162.248,69.550 193.978,74.191 199.147 C 75.596 200.711,77.048 203.403,78.211 206.600 C 78.684 207.900,79.613 209.237,80.863 210.418 C 82.053 211.542,82.883 212.715,83.038 213.490 C 83.318 214.888,84.431 216.089,86.452 217.171 C 87.193 217.569,88.253 218.683,88.808 219.647 C 89.562 220.960,90.360 221.666,91.983 222.460 C 93.175 223.042,94.903 224.328,95.824 225.316 C 96.744 226.305,97.926 227.243,98.449 227.401 C 101.200 228.234,105.191 230.278,106.620 231.586 C 108.331 233.152,112.991 234.389,117.257 234.408 C 118.216 234.412,120.260 234.603,121.800 234.831 C 126.943 235.594,132.399 235.878,135.916 235.565 C 149.740 234.333,153.324 233.575,155.600 231.402 C 159.023 228.133,167.063 227.760,169.096 230.776 C 170.901 233.455,170.258 253.221,168.239 257.126 C 167.899 257.783,167.001 261.196,166.243 264.711 C 164.853 271.164,163.831 273.910,162.463 274.874 C 162.052 275.163,160.762 276.806,159.598 278.525 C 157.414 281.746,155.631 283.038,151.541 284.363 C 150.739 284.622,149.507 285.385,148.804 286.056 C 144.215 290.442,119.716 290.754,114.775 286.490 C 114.080 285.891,111.866 284.590,109.856 283.600 C 106.893 282.141,105.984 281.473,105.058 280.076 C 104.237 278.838,103.325 278.091,101.820 277.426 C 99.906 276.580,98.000 274.699,98.000 273.657 C 98.000 273.427,97.170 272.668,96.156 271.970 C 94.834 271.060,94.055 270.121,93.403 268.651 C 92.903 267.523,91.708 265.852,90.747 264.937 C 89.786 264.022,88.239 262.379,87.310 261.284 C 85.312 258.934,80.528 257.707,78.118 258.927 C 77.503 259.238,76.280 259.720,75.400 259.997 C 71.656 261.177,70.914 266.634,74.010 270.212 C 75.896 272.391,77.069 274.550,78.021 277.596 C 78.564 279.333,78.988 279.946,80.054 280.534 C 81.974 281.593,83.163 282.776,84.055 284.516 C 84.500 285.383,85.297 286.207,85.916 286.441 C 87.351 286.981,89.427 289.017,90.032 290.476 C 90.369 291.292,91.227 292.006,92.856 292.828 C 94.398 293.607,95.543 294.536,96.219 295.556 C 97.234 297.090,99.569 298.279,104.952 300.000 C 105.806 300.273,107.178 301.105,108.000 301.848 C 110.698 304.285,122.824 306.660,130.600 306.275 C 145.662 305.528,152.682 304.250,155.943 301.660 C 157.689 300.273,159.951 299.250,161.344 299.218 C 161.753 299.208,163.103 298.163,164.344 296.896 C 165.585 295.630,167.350 294.085,168.267 293.465 C 171.239 291.454,174.714 287.465,176.009 284.580 C 176.671 283.104,177.812 281.334,178.544 280.648 C 179.938 279.339,180.265 278.390,182.586 268.910 C 183.136 266.660,183.941 264.050,184.374 263.110 C 184.807 262.169,185.353 259.690,185.588 257.600 C 187.220 243.071,187.230 242.843,187.107 222.158 C 186.968 198.669,186.941 198.457,183.883 196.526 C 182.957 195.942,181.561 195.045,180.780 194.533 C 177.977 192.695,172.526 194.150,170.349 197.316 C 169.863 198.022,168.821 199.240,168.033 200.021 C 167.245 200.803,166.160 202.301,165.623 203.349 C 164.707 205.136,162.993 206.800,162.069 206.800 C 161.844 206.800,161.242 207.347,160.730 208.015 C 158.077 211.479,157.499 211.969,154.836 213.014 C 153.333 213.603,151.585 214.534,150.952 215.081 C 147.518 218.046,144.542 218.581,131.400 218.591 C 118.099 218.602,115.725 218.201,112.430 215.389 C 111.053 214.213,109.567 213.383,108.070 212.954 C 106.395 212.473,105.363 211.850,104.133 210.579 C 103.217 209.631,101.746 208.379,100.866 207.796 C 99.985 207.213,98.755 205.991,98.132 205.080 C 97.510 204.169,96.259 202.698,95.354 201.812 C 94.161 200.642,93.467 199.465,92.829 197.521 C 92.345 196.048,91.518 194.248,90.991 193.521 C 87.618 188.871,86.745 183.767,87.581 173.567 C 88.135 166.802,88.414 165.737,90.198 163.602 C 90.933 162.722,91.846 161.057,92.225 159.901 C 93.624 155.643,94.711 153.642,96.073 152.822 C 96.803 152.383,98.135 150.983,99.032 149.712 C 100.316 147.894,101.237 147.101,103.345 146.000 C 104.820 145.230,106.467 144.036,107.006 143.346 C 111.634 137.423,143.548 137.219,150.026 143.071 C 150.861 143.825,153.131 145.117,155.071 145.942 C 157.998 147.188,158.784 147.720,159.693 149.073 C 160.302 149.979,161.457 151.013,162.294 151.401 C 164.144 152.259,165.495 153.453,166.244 154.891 C 166.556 155.492,167.792 156.610,168.990 157.376 C 170.439 158.303,171.450 159.322,172.009 160.418 C 172.479 161.340,173.407 162.360,174.114 162.733 C 175.731 163.586,177.614 165.469,178.467 167.086 C 178.842 167.797,179.862 168.721,180.799 169.199 C 181.878 169.750,182.887 170.730,183.668 171.987 C 184.399 173.163,185.637 174.401,186.813 175.132 C 188.128 175.949,189.051 176.920,189.677 178.143 C 190.184 179.137,191.336 180.481,192.235 181.130 C 193.190 181.820,194.222 183.060,194.717 184.112 C 195.560 185.906,196.496 186.835,198.661 188.028 C 199.287 188.373,200.061 189.183,200.381 189.828 C 201.145 191.369,202.817 193.200,203.462 193.200 C 204.130 193.200,206.800 195.875,206.800 196.544 C 206.800 197.216,208.349 198.659,210.052 199.571 C 210.793 199.969,211.860 201.083,212.422 202.047 C 212.985 203.011,214.045 204.160,214.779 204.600 C 215.513 205.040,216.583 205.870,217.157 206.443 C 217.730 207.017,218.560 208.087,219.000 208.821 C 219.440 209.555,220.589 210.615,221.553 211.178 C 222.517 211.740,223.631 212.807,224.029 213.548 C 224.932 215.234,226.382 216.800,227.039 216.800 C 227.808 216.800,229.958 218.758,230.642 220.082 C 231.046 220.863,231.965 221.584,233.328 222.191 C 235.401 223.114,236.719 224.259,237.535 225.845 C 237.813 226.387,239.349 227.248,241.815 228.245 C 244.170 229.197,246.415 230.441,247.608 231.454 C 253.648 236.580,287.772 236.576,293.545 231.449 C 294.923 230.225,296.415 229.450,299.314 228.451 C 302.804 227.247,303.345 226.928,304.353 225.473 C 305.077 224.427,306.321 223.405,307.823 222.621 C 309.553 221.719,310.429 220.945,311.182 219.656 C 311.789 218.616,312.846 217.558,313.800 217.034 C 315.059 216.343,315.674 215.588,316.683 213.494 C 317.617 211.554,318.382 210.569,319.502 209.862 C 320.943 208.952,321.129 208.596,322.522 204.093 C 323.667 200.390,324.318 198.953,325.371 197.804 C 329.354 193.456,329.944 160.000,326.037 160.000 C 325.274 160.000,323.433 156.241,322.520 152.823 C 321.722 149.831,321.389 149.199,319.879 147.800 C 318.929 146.920,317.733 145.326,317.220 144.258 C 315.157 139.959,303.637 129.625,300.885 129.604 C 300.602 129.602,299.586 128.793,298.628 127.807 C 296.819 125.946,294.289 124.993,287.454 123.600 C 286.164 123.337,283.934 122.510,282.498 121.761 L 279.886 120.400 273.018 120.400 C 266.442 120.400,265.999 120.451,262.599 121.600 C 260.645 122.261,256.747 123.249,253.935 123.798 C 247.425 125.067,245.149 125.943,243.232 127.920 C 242.269 128.911,240.923 129.760,239.637 130.188 C 238.136 130.686,237.178 131.354,236.090 132.659 C 235.271 133.643,233.747 134.975,232.704 135.618 C 231.661 136.262,230.191 137.646,229.438 138.694 C 228.684 139.742,227.513 141.011,226.834 141.512 C 226.155 142.014,225.066 143.481,224.414 144.772 C 223.763 146.063,222.728 147.495,222.115 147.955 C 221.502 148.415,220.775 148.980,220.500 149.211 C 220.184 149.477,220.000 150.704,220.000 152.539 C 220.000 155.766,220.187 156.129,222.673 157.711 C 223.594 158.297,224.831 159.383,225.422 160.124 L 226.497 161.471 228.749 160.545 C 229.987 160.036,231.246 159.615,231.547 159.609 C 232.476 159.593,238.249 154.102,240.429 151.161 C 242.511 148.353,244.285 146.877,247.600 145.197 C 248.590 144.696,250.068 143.598,250.884 142.758 C 256.165 137.327,285.425 137.477,291.200 142.965 C 291.970 143.697,293.911 145.063,295.514 146.002 C 297.117 146.940,298.792 148.179,299.235 148.754 C 299.678 149.329,300.767 150.745,301.654 151.900 C 302.542 153.055,303.424 154.000,303.615 154.000 C 304.355 154.000,306.393 157.614,307.392 160.699 C 308.008 162.602,308.927 164.486,309.622 165.268 C 313.470 169.602,313.324 186.326,309.389 192.013 C 308.851 192.791,307.981 194.691,307.456 196.237 C 306.196 199.941,305.435 201.357,304.172 202.351 C 303.598 202.802,302.602 203.966,301.959 204.936 C 301.317 205.906,300.028 207.202,299.096 207.816 C 298.163 208.430,296.731 209.688,295.913 210.612 C 294.887 211.772,293.693 212.567,292.057 213.179 C 290.754 213.666,289.173 214.606,288.544 215.268 C 283.866 220.189,259.102 220.286,253.606 215.405 C 252.543 214.461,250.788 213.395,249.706 213.035 C 247.798 212.402,245.564 210.511,245.077 209.118 C 244.946 208.743,244.155 208.086,243.319 207.657 C 241.562 206.756,240.365 205.536,239.439 203.704 C 239.078 202.991,238.112 202.064,237.292 201.643 C 235.560 200.755,234.361 199.529,233.437 197.701 C 233.068 196.971,232.216 196.161,231.490 195.851 C 229.947 195.190,228.206 193.411,227.642 191.916 C 227.403 191.285,226.578 190.499,225.666 190.034 C 224.003 189.185,222.146 187.235,221.578 185.742 C 221.389 185.245,220.642 184.539,219.917 184.172 C 218.065 183.236,216.847 182.044,215.945 180.284 C 215.517 179.450,214.760 178.613,214.261 178.423 C 212.770 177.856,210.816 176.000,209.976 174.352 C 209.486 173.393,208.695 172.595,207.893 172.252 C 206.348 171.591,204.607 169.812,204.043 168.319 C 203.818 167.725,203.042 166.939,202.317 166.572 C 200.471 165.639,199.248 164.445,198.357 162.708 C 197.936 161.888,197.009 160.922,196.296 160.561 C 194.465 159.636,193.244 158.438,192.345 156.684 C 191.901 155.818,191.103 154.992,190.484 154.758 C 188.988 154.193,187.210 152.453,186.548 150.907 C 186.212 150.121,185.408 149.313,184.497 148.846 C 182.761 147.955,181.562 146.730,180.639 144.904 C 180.278 144.191,179.312 143.264,178.492 142.843 C 176.768 141.959,175.561 140.729,174.653 138.932 C 174.205 138.045,173.345 137.359,171.789 136.646 C 170.566 136.086,168.743 134.806,167.738 133.802 C 165.738 131.801,164.813 131.243,161.365 129.953 C 160.100 129.479,158.330 128.414,157.431 127.586 C 155.563 125.864,153.878 125.299,146.176 123.811 C 143.304 123.255,139.355 122.261,137.401 121.600 C 132.342 119.890,120.832 119.782,118.200 121.421 " stroke="none" fill="#ffffff" fill-rule="evenodd"></path>
        <path id="path1" d="M0.000 200.000 L 0.000 400.000 200.000 400.000 L 400.000 400.000 400.000 200.000 L 400.000 0.000 200.000 0.000 L 0.000 0.000 0.000 200.000 M137.401 121.600 C 139.355 122.261,143.304 123.255,146.176 123.811 C 153.878 125.299,155.563 125.864,157.431 127.586 C 158.330 128.414,160.100 129.479,161.365 129.953 C 164.813 131.243,165.738 131.801,167.738 133.802 C 168.743 134.806,170.566 136.086,171.789 136.646 C 173.345 137.359,174.205 138.045,174.653 138.932 C 175.561 140.729,176.768 141.959,178.492 142.843 C 179.312 143.264,180.278 144.191,180.639 144.904 C 181.562 146.730,182.761 147.955,184.497 148.846 C 185.408 149.313,186.212 150.121,186.548 150.907 C 187.210 152.453,188.988 154.193,190.484 154.758 C 191.103 154.992,191.901 155.818,192.345 156.684 C 193.244 158.438,194.465 159.636,196.296 160.561 C 197.009 160.922,197.936 161.888,198.357 162.708 C 199.248 164.445,200.471 165.639,202.317 166.572 C 203.042 166.939,203.818 167.725,204.043 168.319 C 204.607 169.812,206.348 171.591,207.893 172.252 C 208.695 172.595,209.486 173.393,209.976 174.352 C 210.816 176.000,212.770 177.856,214.261 178.423 C 214.760 178.613,215.517 179.450,215.945 180.284 C 216.847 182.044,218.065 183.236,219.917 184.172 C 220.642 184.539,221.389 185.245,221.578 185.742 C 222.146 187.235,224.003 189.185,225.666 190.034 C 226.578 190.499,227.403 191.285,227.642 191.916 C 228.206 193.411,229.947 195.190,231.490 195.851 C 232.216 196.161,233.068 196.971,233.437 197.701 C 234.361 199.529,235.560 200.755,237.292 201.643 C 238.112 202.064,239.078 202.991,239.439 203.704 C 240.365 205.536,241.562 206.756,243.319 207.657 C 244.155 208.086,244.946 208.743,245.077 209.118 C 245.564 210.511,247.798 212.402,249.706 213.035 C 250.788 213.395,252.543 214.461,253.606 215.405 C 259.102 220.286,283.866 220.189,288.544 215.268 C 289.173 214.606,290.754 213.666,292.057 213.179 C 293.693 212.567,294.887 211.772,295.913 210.612 C 296.731 209.688,298.163 208.430,299.096 207.816 C 300.028 207.202,301.317 205.906,301.959 204.936 C 302.602 203.966,303.598 202.802,304.172 202.351 C 305.435 201.357,306.196 199.941,307.456 196.237 C 307.981 194.691,308.851 192.791,309.389 192.013 C 313.324 186.326,313.470 169.602,309.622 165.268 C 308.927 164.486,308.008 162.602,307.392 160.699 C 306.393 157.614,304.355 154.000,303.615 154.000 C 303.424 154.000,302.542 153.055,301.654 151.900 C 300.767 150.745,299.678 149.329,299.235 148.754 C 298.792 148.179,297.117 146.940,295.514 146.002 C 293.911 145.063,291.970 143.697,291.200 142.965 C 285.425 137.477,256.165 137.327,250.884 142.758 C 250.068 143.598,248.590 144.696,247.600 145.197 C 244.285 146.877,242.511 148.353,240.429 151.161 C 238.249 154.102,232.476 159.593,231.547 159.609 C 231.246 159.615,229.987 160.036,228.749 160.545 L 226.497 161.471 225.422 160.124 C 224.831 159.383,223.594 158.297,222.673 157.711 C 220.187 156.129,220.000 155.766,220.000 152.539 C 220.000 150.704,220.184 149.477,220.500 149.211 C 220.775 148.980,221.502 148.415,222.115 147.955 C 222.728 147.495,223.763 146.063,224.414 144.772 C 225.066 143.481,226.155 142.014,226.834 141.512 C 227.513 141.011,228.684 139.742,229.438 138.694 C 230.191 137.646,231.661 136.262,232.704 135.618 C 233.747 134.975,235.271 133.643,236.090 132.659 C 237.178 131.354,238.136 130.686,239.637 130.188 C 240.923 129.760,242.269 128.911,243.232 127.920 C 245.149 125.943,247.425 125.067,253.935 123.798 C 256.747 123.249,260.645 122.261,262.599 121.600 C 265.999 120.451,266.442 120.400,273.018 120.400 L 279.886 120.400 282.498 121.761 C 283.934 122.510,286.164 123.337,287.454 123.600 C 294.289 124.993,296.819 125.946,298.628 127.807 C 299.586 128.793,300.602 129.602,300.885 129.604 C 303.637 129.625,315.157 139.959,317.220 144.258 C 317.733 145.326,318.929 146.920,319.879 147.800 C 321.389 149.199,321.722 149.831,322.520 152.823 C 323.433 156.241,325.274 160.000,326.037 160.000 C 329.944 160.000,329.354 193.456,325.371 197.804 C 324.318 198.953,323.667 200.390,322.522 204.093 C 321.129 208.596,320.943 208.952,319.502 209.862 C 318.382 210.569,317.617 211.554,316.683 213.494 C 315.674 215.588,315.059 216.343,313.800 217.034 C 312.846 217.558,311.789 218.616,311.182 219.656 C 310.429 220.945,309.553 221.719,307.823 222.621 C 306.321 223.405,305.077 224.427,304.353 225.473 C 303.345 226.928,302.804 227.247,299.314 228.451 C 296.415 229.450,294.923 230.225,293.545 231.449 C 287.772 236.576,253.648 236.580,247.608 231.454 C 246.415 230.441,244.170 229.197,241.815 228.245 C 239.349 227.248,237.813 226.387,237.535 225.845 C 236.719 224.259,235.401 223.114,233.328 222.191 C 231.965 221.584,231.046 220.863,230.642 220.082 C 229.958 218.758,227.808 216.800,227.039 216.800 C 226.382 216.800,224.932 215.234,224.029 213.548 C 223.631 212.807,222.517 211.740,221.553 211.178 C 220.589 210.615,219.440 209.555,219.000 208.821 C 218.560 208.087,217.730 207.017,217.157 206.443 C 216.583 205.870,215.513 205.040,214.779 204.600 C 214.045 204.160,212.985 203.011,212.422 202.047 C 211.860 201.083,210.793 199.969,210.052 199.571 C 208.349 198.659,206.800 197.216,206.800 196.544 C 206.800 195.875,204.130 193.200,203.462 193.200 C 202.817 193.200,201.145 191.369,200.381 189.828 C 200.061 189.183,199.287 188.373,198.661 188.028 C 196.496 186.835,195.560 185.906,194.717 184.112 C 194.222 183.060,193.190 181.820,192.235 181.130 C 191.336 180.481,190.184 179.137,189.677 178.143 C 189.051 176.920,188.128 175.949,186.813 175.132 C 185.637 174.401,184.399 173.163,183.668 171.987 C 182.887 170.730,181.878 169.750,180.799 169.199 C 179.862 168.721,178.842 167.797,178.467 167.086 C 177.614 165.469,175.731 163.586,174.114 162.733 C 173.407 162.360,172.479 161.340,172.009 160.418 C 171.450 159.322,170.439 158.303,168.990 157.376 C 167.792 156.610,166.556 155.492,166.244 154.891 C 165.495 153.453,164.144 152.259,162.294 151.401 C 161.457 151.013,160.302 149.979,159.693 149.073 C 158.784 147.720,157.998 147.188,155.071 145.942 C 153.131 145.117,150.861 143.825,150.026 143.071 C 143.548 137.219,111.634 137.423,107.006 143.346 C 106.467 144.036,104.820 145.230,103.345 146.000 C 101.237 147.101,100.316 147.894,99.032 149.712 C 98.135 150.983,96.803 152.383,96.073 152.822 C 94.711 153.642,93.624 155.643,92.225 159.901 C 91.846 161.057,90.933 162.722,90.198 163.602 C 88.414 165.737,88.135 166.802,87.581 173.567 C 86.745 183.767,87.618 188.871,90.991 193.521 C 91.518 194.248,92.345 196.048,92.829 197.521 C 93.467 199.465,94.161 200.642,95.354 201.812 C 96.259 202.698,97.510 204.169,98.132 205.080 C 98.755 205.991,99.985 207.213,100.866 207.796 C 101.746 208.379,103.217 209.631,104.133 210.579 C 105.363 211.850,106.395 212.473,108.070 212.954 C 109.567 213.383,111.053 214.213,112.430 215.389 C 115.725 218.201,118.099 218.602,131.400 218.591 C 144.542 218.581,147.518 218.046,150.952 215.081 C 151.585 214.534,153.333 213.603,154.836 213.014 C 157.499 211.969,158.077 211.479,160.730 208.015 C 161.242 207.347,161.844 206.800,162.069 206.800 C 162.993 206.800,164.707 205.136,165.623 203.349 C 166.160 202.301,167.245 200.803,168.033 200.021 C 168.821 199.240,169.863 198.022,170.349 197.316 C 172.526 194.150,177.977 192.695,180.780 194.533 C 181.561 195.045,182.957 195.942,183.883 196.526 C 186.941 198.457,186.968 198.669,187.107 222.158 C 187.230 242.843,187.220 243.071,185.588 257.600 C 185.353 259.690,184.807 262.169,184.374 263.110 C 183.941 264.050,183.136 266.660,182.586 268.910 C 180.265 278.390,179.938 279.339,178.544 280.648 C 177.812 281.334,176.671 283.104,176.009 284.580 C 174.714 287.465,171.239 291.454,168.267 293.465 C 167.350 294.085,165.585 295.630,164.344 296.896 C 163.103 298.163,161.753 299.208,161.344 299.218 C 159.951 299.250,157.689 300.273,155.943 301.660 C 152.682 304.250,145.662 305.528,130.600 306.275 C 122.824 306.660,110.698 304.285,108.000 301.848 C 107.178 301.105,105.806 300.273,104.952 300.000 C 99.569 298.279,97.234 297.090,96.219 295.556 C 95.543 294.536,94.398 293.607,92.856 292.828 C 91.227 292.006,90.369 291.292,90.032 290.476 C 89.427 289.017,87.351 286.981,85.916 286.441 C 85.297 286.207,84.500 285.383,84.055 284.516 C 83.163 282.776,81.974 281.593,80.054 280.534 C 78.988 279.946,78.564 279.333,78.021 277.596 C 77.069 274.550,75.896 272.391,74.010 270.212 C 70.914 266.634,71.656 261.177,75.400 259.997 C 76.280 259.720,77.503 259.238,78.118 258.927 C 80.528 257.707,85.312 258.934,87.310 261.284 C 88.239 262.379,89.786 264.022,90.747 264.937 C 91.708 265.852,92.903 267.523,93.403 268.651 C 94.055 270.121,94.834 271.060,96.156 271.970 C 97.170 272.668,98.000 273.427,98.000 273.657 C 98.000 274.699,99.906 276.580,101.820 277.426 C 103.325 278.091,104.237 278.838,105.058 280.076 C 105.984 281.473,106.893 282.141,109.856 283.600 C 111.866 284.590,114.080 285.891,114.775 286.490 C 119.716 290.754,144.215 290.442,148.804 286.056 C 149.507 285.385,150.739 284.622,151.541 284.363 C 155.631 283.038,157.414 281.746,159.598 278.525 C 160.762 276.806,162.052 275.163,162.463 274.874 C 163.831 273.910,164.853 271.164,166.243 264.711 C 167.001 261.196,167.899 257.783,168.239 257.126 C 170.258 253.221,170.901 233.455,169.096 230.776 C 167.063 227.760,159.023 228.133,155.600 231.402 C 153.324 233.575,149.740 234.333,135.916 235.565 C 132.399 235.878,126.943 235.594,121.800 234.831 C 120.260 234.603,118.216 234.412,117.257 234.408 C 112.991 234.389,108.331 233.152,106.620 231.586 C 105.191 230.278,101.200 228.234,98.449 227.401 C 97.926 227.243,96.744 226.305,95.824 225.316 C 94.903 224.328,93.175 223.042,91.983 222.460 C 90.360 221.666,89.562 220.960,88.808 219.647 C 88.253 218.683,87.193 217.569,86.452 217.171 C 84.431 216.089,83.318 214.888,83.038 213.490 C 82.883 212.715,82.053 211.542,80.863 210.418 C 79.613 209.237,78.684 207.900,78.211 206.600 C 77.048 203.403,75.596 200.711,74.191 199.147 C 69.550 193.978,70.018 162.248,74.831 155.800 C 75.652 154.700,76.610 152.827,76.959 151.639 C 77.686 149.162,78.958 146.845,79.986 146.125 C 80.374 145.853,81.751 144.233,83.046 142.525 C 84.341 140.817,85.940 138.969,86.600 138.417 C 87.260 137.866,89.060 136.118,90.600 134.533 C 92.756 132.313,94.044 131.366,96.200 130.412 C 98.085 129.578,99.588 128.548,100.800 127.259 L 102.600 125.344 107.000 124.652 C 112.384 123.805,116.085 122.737,118.200 121.421 C 120.832 119.782,132.342 119.890,137.401 121.600 " stroke="none" fill="#FF5D55" fill-rule="evenodd"></path>
    </g>
</svg>